<svg xmlns="http://www.w3.org/2000/svg" xmlns:xlink="http://www.w3.org/1999/xlink" width="104" height="104" viewBox="0 0 104 104">
    <defs>
        <circle id="b" cx="40" cy="40" r="40"/>
        <filter id="a" width="155%" height="155%" x="-27.5%" y="-17.5%" filterUnits="objectBoundingBox">
            <feOffset dy="8" in="SourceAlpha" result="shadowOffsetOuter1"/>
            <feGaussianBlur in="shadowOffsetOuter1" result="shadowBlurOuter1" stdDeviation="6"/>
            <feColorMatrix in="shadowBlurOuter1" values="0 0 0 0 0 0 0 0 0 0 0 0 0 0 0 0 0 0 0.056517701 0"/>
        </filter>
    </defs>
    <g fill="none" fill-rule="evenodd">
        <g transform="translate(12 4)">
            <use fill="#000" filter="url(#a)" xlink:href="#b"/>
            <use fill="#FFF" xlink:href="#b"/>
        </g>
        <path fill="#00E1CD" fill-rule="nonzero" d="M57 59.662c0 .554-.104.915-.312 1.084-.208.17-.616.254-1.224.254h-2.64c-.608 0-1.016-.085-1.224-.254-.208-.169-.312-.53-.312-1.084v-24.68h-4.896c-.576 0-.952-.1-1.128-.3-.176-.2-.264-.592-.264-1.176v-2.03c0-.584.088-.976.264-1.176.176-.2.552-.3 1.128-.3h9.072c.608 0 1.016.085 1.224.254.208.169.312.53.312 1.084v28.324z"/>
    </g>
</svg>
