<svg xmlns="http://www.w3.org/2000/svg" xmlns:xlink="http://www.w3.org/1999/xlink" width="104" height="104" viewBox="0 0 104 104">
    <defs>
        <circle id="b" cx="40" cy="40" r="40"/>
        <filter id="a" width="155%" height="155%" x="-27.5%" y="-17.5%" filterUnits="objectBoundingBox">
            <feOffset dy="8" in="SourceAlpha" result="shadowOffsetOuter1"/>
            <feGaussianBlur in="shadowOffsetOuter1" result="shadowBlurOuter1" stdDeviation="6"/>
            <feColorMatrix in="shadowBlurOuter1" values="0 0 0 0 0 0 0 0 0 0 0 0 0 0 0 0 0 0 0.056517701 0"/>
        </filter>
    </defs>
    <g fill="none" fill-rule="evenodd">
        <g transform="translate(12 4)">
            <use fill="#000" filter="url(#a)" xlink:href="#b"/>
            <use fill="#FFF" xlink:href="#b"/>
        </g>
        <path fill="#00E1CD" fill-rule="nonzero" d="M52.402 28c3.095 0 5.469.739 7.12 2.216C61.174 31.693 62 33.8 62 36.536v1.4c0 1.12-.2 2.153-.603 3.102-.401.948-.937 1.82-1.607 2.612a14.241 14.241 0 0 1-2.299 2.17 36.478 36.478 0 0 1-2.634 1.818l-3.571 2.24c-.804.497-1.436.956-1.898 1.376-.46.42-.81.816-1.049 1.19a2.946 2.946 0 0 0-.446 1.119c-.06.373-.09.746-.09 1.12v.186h12.902c.536 0 .886.1 1.05.303.163.202.245.599.245 1.19v2.145c0 .591-.082.988-.246 1.19-.163.202-.513.303-1.049.303H43.43c-.566 0-.945-.086-1.139-.257-.193-.17-.29-.536-.29-1.096v-2.285c0-1.4.164-2.652.491-3.756.327-1.104.766-2.083 1.317-2.938a10.193 10.193 0 0 1 1.942-2.24 17.12 17.12 0 0 1 2.366-1.702l3.795-2.286a37.704 37.704 0 0 0 1.718-1.143 7.592 7.592 0 0 0 1.451-1.33 6.403 6.403 0 0 0 1.005-1.655c.253-.606.38-1.283.38-2.03v-.466c0-2.736-1.43-4.105-4.286-4.105-1.429 0-2.478.296-3.148.887-.67.59-1.108 1.632-1.317 3.125-.06.373-.186.63-.38.77-.193.14-.527.21-1.004.21h-2.544c-.566 0-.945-.094-1.139-.28-.193-.187-.29-.576-.29-1.166 0-.964.179-1.936.536-2.916.357-.98.833-1.78 1.428-2.402C46.196 28.979 48.89 28 52.401 28z"/>
    </g>
</svg>
