<svg xmlns="http://www.w3.org/2000/svg" xmlns:xlink="http://www.w3.org/1999/xlink" width="104" height="104" viewBox="0 0 104 104">
    <defs>
        <circle id="b" cx="40" cy="40" r="40"/>
        <filter id="a" width="155%" height="155%" x="-27.5%" y="-17.5%" filterUnits="objectBoundingBox">
            <feOffset dy="8" in="SourceAlpha" result="shadowOffsetOuter1"/>
            <feGaussianBlur in="shadowOffsetOuter1" result="shadowBlurOuter1" stdDeviation="6"/>
            <feColorMatrix in="shadowBlurOuter1" values="0 0 0 0 0 0 0 0 0 0 0 0 0 0 0 0 0 0 0.056517701 0"/>
        </filter>
    </defs>
    <g fill="none" fill-rule="evenodd">
        <g transform="translate(12 4)">
            <use fill="#000" filter="url(#a)" xlink:href="#b"/>
            <use fill="#FFF" xlink:href="#b"/>
        </g>
        <path fill="#00E1CD" fill-rule="nonzero" d="M52.499 28c3.263 0 5.757.67 7.484 2.011 1.726 1.341 2.59 3.307 2.59 5.898v.914c0 1.463-.428 2.735-1.284 3.817-.855 1.082-2.043 1.928-3.563 2.537 1.71.427 3.017 1.204 3.92 2.332.903 1.127 1.354 2.56 1.354 4.297v1.691c0 2.682-.974 4.77-2.922 6.263-1.948 1.493-4.601 2.24-7.96 2.24-2.027 0-3.808-.236-5.345-.709-1.536-.472-2.764-1.15-3.682-2.034-.634-.61-1.14-1.379-1.52-2.308-.38-.93-.571-1.852-.571-2.766 0-.58.103-.96.309-1.143.206-.183.61-.274 1.212-.274h2.708c.538 0 .91.068 1.117.205.205.138.324.389.356.755.222 2.407 1.948 3.611 5.18 3.611 1.646 0 2.914-.35 3.8-1.051.887-.701 1.331-1.737 1.331-3.109V50.08c0-2.865-1.631-4.297-4.894-4.297h-1.426c-.57 0-.942-.1-1.116-.297-.175-.198-.262-.587-.262-1.166v-2.011c0-.58.087-.968.262-1.166.174-.198.546-.297 1.116-.297h.856c3.42 0 5.131-1.372 5.131-4.115v-.548c0-2.5-1.552-3.749-4.656-3.749-1.552 0-2.732.297-3.54.892-.808.594-1.323 1.577-1.544 2.948-.064.366-.198.617-.404.755-.206.137-.563.205-1.07.205h-2.518c-.602 0-1.006-.091-1.211-.274-.206-.183-.31-.564-.31-1.143 0-.914.183-1.806.547-2.674a6.7 6.7 0 0 1 1.544-2.263c1.014-1.006 2.226-1.737 3.635-2.194 1.41-.457 3.192-.686 5.346-.686z"/>
    </g>
</svg>
