<svg xmlns="http://www.w3.org/2000/svg" width="110" height="26" viewBox="0 0 110 26">
    <defs>
        <linearGradient id="a" x1=".346%" x2="90.083%" y1="66.919%" y2="35.909%">
            <stop offset="20%" stop-color="#D3FD58"/>
            <stop offset="33%" stop-color="#B6F968"/>
            <stop offset="63%" stop-color="#6CEF92"/>
            <stop offset="100%" stop-color="#07E2CA"/>
        </linearGradient>
        <linearGradient id="b" x1="0%" y1="50%" y2="50%">
            <stop offset="20%" stop-color="#D3FD58"/>
            <stop offset="33%" stop-color="#B6F968"/>
            <stop offset="63%" stop-color="#6CEF92"/>
            <stop offset="100%" stop-color="#07E2CA"/>
        </linearGradient>
        <linearGradient id="c" x1="-1.306%" x2="95.461%" y1="67.164%" y2="11.705%">
            <stop offset="0%" stop-color="#D3FD58"/>
            <stop offset="100%" stop-color="#07E2CA"/>
        </linearGradient>
    </defs>
    <g fill="none" fill-rule="nonzero">
        <path fill="url(#a)" d="M41.084 10.535c1.343.002 2.457 1.078 2.55 2.465.093-4.284 3.476-7.728 7.638-7.728 3.502 0 5.402 2.317 5.402 2.317a2.486 2.486 0 0 0 3.602 0 2.702 2.702 0 0 0 0-3.729S56.962 0 51.27 0c-6.954 0-12.606 5.77-12.73 12.937.122-1.36 1.224-2.4 2.543-2.402z"/>
        <path fill="url(#b)" d="M93.115 2.983c.983 0 1.879.57 2.304 1.465a2.6 2.6 0 0 1-.313 2.73 7.546 7.546 0 0 1 5.18-2.054c3.489 0 5.382 2.25 5.382 2.25.991 1.001 2.598 1.001 3.589 0 .99-1 .99-2.622 0-3.622 0 0-3.301-3.752-8.97-3.752a12.58 12.58 0 0 0-8.754 3.538 2.522 2.522 0 0 1 1.582-.555z"/>
        <path fill="#00E1CD" d="M68.248 0a2.319 2.319 0 0 0-1.704.76 2.705 2.705 0 0 0-.705 1.84v20.8c0 1.436 1.079 2.6 2.41 2.6 1.33 0 2.408-1.164 2.408-2.6V2.6c0-.69-.253-1.352-.705-1.84A2.32 2.32 0 0 0 68.248 0zM30.51 11.375c-.638 0-1.251.27-1.703.75a2.65 2.65 0 0 0-.705 1.816v7.056c0 1.417 1.079 2.566 2.409 2.566 1.33 0 2.409-1.15 2.409-2.566V13.94a2.65 2.65 0 0 0-.705-1.815 2.333 2.333 0 0 0-1.704-.751z"/>
        <ellipse cx="30.272" cy="5.518" fill="#00E1CD" rx="2.878" ry="2.921" transform="rotate(-1.71 30.272 5.518)"/>
        <path fill="#00E1CD" d="M78.686 11.375c-.639 0-1.252.27-1.704.75a2.65 2.65 0 0 0-.705 1.816v7.056c0 1.417 1.079 2.566 2.41 2.566 1.33 0 2.408-1.15 2.408-2.566V13.94a2.65 2.65 0 0 0-.705-1.815 2.333 2.333 0 0 0-1.704-.751z"/>
        <ellipse cx="78.884" cy="5.513" fill="#00E1CD" rx="2.878" ry="2.921" transform="rotate(-1.91 78.884 5.513)"/>
        <path fill="url(#c)" d="M2.974 20.28c0-1.019.585-1.944 1.497-2.366a2.52 2.52 0 0 1 2.736.406 7.817 7.817 0 0 1-2.114-5.367c0-4.292 3.42-7.772 7.64-7.772 3.5 0 5.402 2.276 5.402 2.276.643.655 1.58.91 2.46.67a2.569 2.569 0 0 0 1.8-1.831 2.621 2.621 0 0 0-.66-2.502S18.423 0 12.733 0C5.701 0 0 5.8 0 12.953a13.028 13.028 0 0 0 3.562 8.985 2.608 2.608 0 0 1-.588-1.658z"/>
        <path fill="#00E1CD" d="M21.744 18.626a2.495 2.495 0 0 0-3.568 0c-.006.006-.48.568-1.37 1.122a7.393 7.393 0 0 1-1.67.771 7.543 7.543 0 0 1-4.55 0 7.585 7.585 0 0 1-1.673-.77c-.898-.555-1.388-1.117-1.393-1.122a2.495 2.495 0 0 0-2.438-.665 2.545 2.545 0 0 0-1.784 1.814c-.234.885.015 1.83.653 2.478.008.009.836.947 2.34 1.873.877.541 1.815.973 2.794 1.288 2.449.78 5.075.78 7.524 0a12.771 12.771 0 0 0 2.794-1.288c1.504-.926 2.332-1.864 2.34-1.873a2.596 2.596 0 0 0 0-3.628h.001zM60.274 18.587a2.536 2.536 0 0 0-3.611 0c-.005.006-.485.57-1.386 1.128a7.527 7.527 0 0 1-4.006 1.127 7.58 7.58 0 0 1-5.393-2.253 7.733 7.733 0 0 1-2.231-5.448c0-1.424-1.143-2.579-2.554-2.579-1.41 0-2.553 1.155-2.553 2.58a12.9 12.9 0 0 0 5.194 10.363 12.628 12.628 0 0 0 14.173.611c1.521-.93 2.36-1.873 2.367-1.883a2.597 2.597 0 0 0 0-3.646zM109.251 18.564a2.54 2.54 0 0 0-3.621 0c-.006.007-.485.572-1.384 1.128a7.499 7.499 0 0 1-3.998 1.127c-3.08.003-5.857-1.873-7.035-4.751a7.758 7.758 0 0 1 1.658-8.391 2.61 2.61 0 0 0 .67-2.505 2.575 2.575 0 0 0-1.814-1.834 2.54 2.54 0 0 0-2.477.676c-4.146 4.191-4.927 10.705-1.891 15.777 3.035 5.072 9.103 7.392 14.696 5.618.99-.316 1.94-.751 2.828-1.296 1.522-.932 2.36-1.878 2.369-1.887a2.614 2.614 0 0 0 0-3.662z"/>
    </g>
</svg>
