<svg xmlns="http://www.w3.org/2000/svg" xmlns:xlink="http://www.w3.org/1999/xlink" width="312" height="548" viewBox="0 0 312 548">
    <defs>
        <filter id="a" width="185.9%" height="148.9%" x="-42.9%" y="-24.5%" filterUnits="objectBoundingBox">
            <feOffset dy="25" in="SourceAlpha" result="shadowOffsetOuter1"/>
            <feGaussianBlur in="shadowOffsetOuter1" result="shadowBlurOuter1" stdDeviation="22.5"/>
            <feColorMatrix in="shadowBlurOuter1" result="shadowMatrixOuter1" values="0 0 0 0 0 0 0 0 0 0 0 0 0 0 0 0 0 0 0.148218969 0"/>
            <feMerge>
                <feMergeNode in="shadowMatrixOuter1"/>
                <feMergeNode in="SourceGraphic"/>
            </feMerge>
        </filter>
        <path id="b" d="M258.102 49.633h-1.677v60.75h1.677l1.677-.822V50.494l-1.677-.86zM.437.783v18.593l.646.626h1.803V.157H1.108l-.67.626zm-.242 36.95v36.952l1.677.822h.819V36.873h-.858l-1.638.86zm0 47.833v36.951l1.677.822h.819V84.705h-.858l-1.638.861z"/>
        <filter id="c" width="113.8%" height="127.6%" x="-6.9%" y="-13.8%" filterUnits="objectBoundingBox">
            <feGaussianBlur in="SourceGraphic" stdDeviation="6"/>
        </filter>
        <path id="e" d="M.936 35.698H.117v42.783h.819c1.365 0 2.496-2.818 2.496-4.188V39.887c0-1.37-1.131-4.189-2.496-4.189zm2.262-17.73V3.533C3.198.206 1.677.117 1.677.117v21.098c0-.039 1.521.593 1.521-3.248zM.936 83.373H.039v42.666h.897c1.365 0 2.496-2.818 2.496-4.188V87.523c0-1.37-1.131-4.149-2.496-4.149zm261.222-35.072c-1.365 0-2.496 2.819-2.496 4.189v56.835c0 1.37 1.131 4.188 2.496 4.188h1.053V48.302h-1.053z"/>
        <filter id="f" width="106.9%" height="113.5%" x="-3.4%" y="-6.8%" filterUnits="objectBoundingBox">
            <feGaussianBlur in="SourceGraphic" stdDeviation="3"/>
        </filter>
        <filter id="h" width="104.6%" height="109.1%" x="-2.3%" y="-4.5%" filterUnits="objectBoundingBox">
            <feGaussianBlur in="SourceGraphic" stdDeviation="2"/>
        </filter>
        <filter id="i" width="104.6%" height="109.1%" x="-2.3%" y="-4.5%" filterUnits="objectBoundingBox">
            <feGaussianBlur in="SourceGraphic" stdDeviation="2"/>
        </filter>
        <path id="j" d="M3.9 17.331V1.662c0-1.1-.568-1.566-.568-1.566L2.34.352v18.593l1.083.154c-.039.04.477-.055.477-1.768zm-2.33 18.08l-1.024-.143v41.335l1.384-1.144c1.901-.398 2.017-3.328 2.017-4.606V40.78c0-1.78-.548-4.746-2.376-5.37zm-.265 47.72H.252v41.097h1.053c1.365 0 2.496-2.74 2.496-4.11V87.201c0-1.33-1.092-4.07-2.496-4.07zm263.18-35.338c-2.196 1.574-2.257 4.424-2.257 5.898v52.504c0 1.862.317 3.874 1.83 3.942l1.74 1.146v-63.49h-1.312z"/>
        <filter id="k" width="519.9%" height="156.8%" x="-210%" y="-28.4%" filterUnits="objectBoundingBox">
            <feGaussianBlur in="SourceGraphic" stdDeviation="2"/>
        </filter>
        <filter id="m" width="397.9%" height="113%" x="-149%" y="-6.5%" filterUnits="objectBoundingBox">
            <feGaussianBlur in="SourceGraphic" stdDeviation="2"/>
        </filter>
        <filter id="n" width="397.9%" height="113%" x="-149%" y="-6.5%" filterUnits="objectBoundingBox">
            <feGaussianBlur in="SourceGraphic" stdDeviation="2"/>
        </filter>
        <path id="o" d="M216.801 522.127h-73.71c-.858-.548-4.68-.627-5.46-.627h-17.589c-.819 0-4.641.079-5.46.627h-73.71c-24.765 0-40.56-15.462-40.56-43.018V195.205c.507-1.448.819-2.622.819-3.366v-34.21c0-.744-.312-1.88-.819-2.819v-7.241c.507-1.449.819-2.623.819-3.367v-34.21c0-.744-.312-1.88-.819-2.819V91.477c.507-1.292.624-2.349.624-3.053V73.236c0-.704-.117-1.761-.624-2.583v-26.03C.312 16.44 15.288.157 44.811.157h168.051c29.523 0 44.499 16.283 44.499 44.466v74.332c-.507 1.879-.819 3.053-.819 3.797v56.327c0 .743.312 1.878.819 2.818v297.212c0 27.595-15.834 43.018-40.56 43.018z"/>
        <filter id="q" width="119.2%" height="109.5%" x="-9.6%" y="-4.7%" filterUnits="objectBoundingBox">
            <feGaussianBlur in="SourceGraphic" stdDeviation="8"/>
        </filter>
        <filter id="r" width="119.2%" height="109.5%" x="-9.6%" y="-4.7%" filterUnits="objectBoundingBox">
            <feGaussianBlur in="SourceGraphic" stdDeviation="8"/>
        </filter>
        <filter id="s" width="129.1%" height="329.1%" x="-14.6%" y="-114.5%" filterUnits="objectBoundingBox">
            <feGaussianBlur in="SourceGraphic" stdDeviation="12"/>
        </filter>
        <filter id="t" width="113.6%" height="185.2%" x="-6.8%" y="-42.6%" filterUnits="objectBoundingBox">
            <feGaussianBlur in="SourceGraphic" stdDeviation="6"/>
        </filter>
        <filter id="u" width="114.2%" height="285.1%" x="-7.1%" y="-92.5%" filterUnits="objectBoundingBox">
            <feGaussianBlur in="SourceGraphic" stdDeviation="6"/>
        </filter>
        <filter id="v" width="109.3%" height="154.3%" x="-4.7%" y="-27.1%" filterUnits="objectBoundingBox">
            <feGaussianBlur in="SourceGraphic" stdDeviation="4"/>
        </filter>
        <filter id="w" width="106.7%" height="103.4%" x="-3.4%" y="-1.7%" filterUnits="objectBoundingBox">
            <feGaussianBlur in="SourceGraphic" stdDeviation="3"/>
        </filter>
        <path id="x" d="M29.718.196H2.457A2.184 2.184 0 0 0 .273 2.388c0 1.213.975 2.192 2.184 2.192h27.261a2.184 2.184 0 0 0 2.184-2.192A2.184 2.184 0 0 0 29.718.196z"/>
        <path id="z" d="M30.108.196H2.847A2.618 2.618 0 0 0 .234 2.818a2.618 2.618 0 0 0 2.613 2.623h27.261a2.618 2.618 0 0 0 2.613-2.623A2.618 2.618 0 0 0 30.108.196zm0 4.775H2.847A2.184 2.184 0 0 1 .663 2.78c0-1.213.975-2.192 2.184-2.192h27.261c1.209 0 2.184.979 2.184 2.192a2.184 2.184 0 0 1-2.184 2.192z"/>
        <filter id="A" width="170.4%" height="594.8%" x="-35.2%" y="-247.4%" filterUnits="objectBoundingBox">
            <feGaussianBlur in="SourceGraphic" stdDeviation="3.906"/>
        </filter>
        <filter id="C" width="118.5%" height="312.9%" x="-9.2%" y="-106.4%" filterUnits="objectBoundingBox">
            <feGaussianBlur in="SourceGraphic" stdDeviation="1"/>
        </filter>
        <path id="D" d="M30.108.979H2.847A2.184 2.184 0 0 0 .663 3.17c0 1.213.975 2.192 2.184 2.192h27.261a2.184 2.184 0 0 0 2.184-2.192A2.184 2.184 0 0 0 30.108.979z"/>
        <filter id="E" width="112.6%" height="191.2%" x="-6.3%" y="-45.6%" filterUnits="objectBoundingBox">
            <feGaussianBlur in="SourceAlpha" result="shadowBlurInner1" stdDeviation="1.5"/>
            <feOffset dy="1" in="shadowBlurInner1" result="shadowOffsetInner1"/>
            <feComposite in="shadowOffsetInner1" in2="SourceAlpha" k2="-1" k3="1" operator="arithmetic" result="shadowInnerInner1"/>
            <feColorMatrix in="shadowInnerInner1" values="0 0 0 0 0 0 0 0 0 0 0 0 0 0 0 0 0 0 0.297186368 0"/>
        </filter>
        <path id="G" d="M7.917 4.267A3.935 3.935 0 0 1 3.978 8.22 3.935 3.935 0 0 1 .039 4.267 3.935 3.935 0 0 1 3.978.313a3.935 3.935 0 0 1 3.939 3.954z"/>
        <filter id="H" width="390.3%" height="389.2%" x="-145.1%" y="-144.6%" filterUnits="objectBoundingBox">
            <feGaussianBlur in="SourceGraphic" stdDeviation="4"/>
        </filter>
        <filter id="J" width="390.3%" height="389.2%" x="-145.1%" y="-144.6%" filterUnits="objectBoundingBox">
            <feGaussianBlur in="SourceGraphic" stdDeviation="4"/>
        </filter>
        <path id="K" d="M5.304 2.7c0 1.37-1.131 2.506-2.496 2.506S.312 4.071.312 2.701C.312 1.33 1.443.196 2.808.196S5.304 1.33 5.304 2.7z"/>
        <filter id="L" width="200.2%" height="199.8%" x="-50.1%" y="-49.9%" filterUnits="objectBoundingBox">
            <feGaussianBlur in="SourceAlpha" result="shadowBlurInner1" stdDeviation="2.5"/>
            <feOffset in="shadowBlurInner1" result="shadowOffsetInner1"/>
            <feComposite in="shadowOffsetInner1" in2="SourceAlpha" k2="-1" k3="1" operator="arithmetic" result="shadowInnerInner1"/>
            <feColorMatrix in="shadowInnerInner1" values="0 0 0 0 0 0 0 0 0 0 0 0 0 0 0 0 0 0 0.281646286 0"/>
        </filter>
        <filter id="M" width="254.4%" height="483.2%" x="-77.2%" y="-191.6%" filterUnits="objectBoundingBox">
            <feGaussianBlur in="SourceGraphic" stdDeviation="1"/>
        </filter>
        <filter id="O" width="407.7%" height="406.6%" x="-153.8%" y="-153.3%" filterUnits="objectBoundingBox">
            <feGaussianBlur in="SourceGraphic" stdDeviation="1"/>
        </filter>
        <linearGradient id="P" x1="17.238%" x2="91.969%" y1="75.001%" y2="25.676%">
            <stop offset="0%" stop-color="#CDE6E1"/>
            <stop offset="100%" stop-color="#FFF"/>
        </linearGradient>
    </defs>
    <g fill="none" fill-rule="evenodd" filter="url(#a)">
        <g transform="translate(27.3 77.047)">
            <mask id="d" fill="#fff">
                <use xlink:href="#b"/>
            </mask>
            <use fill="#C0C0C0" fill-rule="nonzero" xlink:href="#b"/>
            <path fill="#000" d="M-.858 39.417l3.549-2.075v-4.384l-3.549 2.075v4.384zm0 37.968l3.549 2.075v-4.384l-3.549-2.075v4.384zm0 9.825l3.549-2.074v-4.384l-3.549 2.074v4.384zm0 38.008l3.549 2.075v-4.384l-3.549-2.075v4.384zm257.907-79.851v4.384l3.549 2.074v-4.384l-3.549-2.074zm0 69.087l3.549-2.075v-4.384l-3.549 2.075v4.384zM-.234 1.214h3.549v-4.385H-.234v4.384zm0 22.31h3.549v-4.383H-.234v4.384z" filter="url(#c)" mask="url(#d)" opacity=".3"/>
            <g mask="url(#d)">
                <g transform="translate(-1.56 -.783)">
                    <mask id="g" fill="#fff">
                        <use xlink:href="#e"/>
                    </mask>
                    <use fill="#EFEFEF" fill-rule="nonzero" opacity=".9" xlink:href="#e"/>
                    <path fill="#000" d="M.702 1.683l3.549-1.8v-3.954L.702-2.27v3.954zm0 22.116l3.549 1.8v-3.953l-3.549-1.8v3.953zm0 15.148l3.549-2.074v-4.384L.702 34.563v4.384zm0 40.278l2.652 1.566-2.652 1.566v4.384l3.549-2.075v-7.711L.702 74.88v4.345zm0 47.794l3.549 2.074v-4.384l-3.549-2.074v4.384zm257.712-80.87v4.384l3.549 2.075v-4.384l-3.549-2.075zm0 69.283l3.549-2.074v-4.384l-3.549 2.074v4.384z" filter="url(#f)" mask="url(#g)" opacity=".7"/>
                    <path fill="#000" d="M.702 40.2l3.549-2.075v-4.384L.702 35.816V40.2zm0 37.968l3.549 2.075v-4.384L.702 73.784v4.384zm0 9.825l3.549-2.074v-4.384L.702 83.609v4.384zm0 38.008l3.549 2.074v-4.384l-3.549-2.074V126zm257.907-79.852v4.384l3.549 2.075v-4.384l-3.549-2.075zm0 69.088l3.549-2.075v-4.384l-3.549 2.075v4.384zM.702 2.466L4.251.391v-4.384L.702-1.918v4.384zm0 21.098l3.549 2.427v-4.384L.702 19.18v4.384z" filter="url(#h)" mask="url(#g)" opacity=".2"/>
                    <path fill="#FFF" d="M.702 39.965l3.549-2.075v-4.384L.702 35.581v4.384zm0 38.516l3.549 2.075v-4.384L.702 74.097v4.384zm0 9.199l3.549-2.075v-4.384L.702 83.296v4.384zm0 38.634l3.549 2.075v-4.384L.702 121.93v4.384zm257.907-79.969v4.11l3.549 2.075v-4.11l-3.549-2.075zm0 68.892l3.549-2.075v-4.384l-3.549 2.075v4.384zM.702 23.486l3.549 2.31V21.41l-3.549-2.31v4.385zm0-21.098L4.251.705V-3.68L.702-1.996v4.384z" filter="url(#i)" mask="url(#g)"/>
                </g>
            </g>
            <g mask="url(#d)">
                <g transform="translate(-3.12 .391)">
                    <mask id="l" fill="#fff">
                        <use xlink:href="#j"/>
                    </mask>
                    <use fill="#D0D0D0" fill-rule="nonzero" xlink:href="#j"/>
                    <path fill="#000" d="M0-.391h2.858v21.137H0z" filter="url(#k)" mask="url(#l)" opacity=".4"/>
                    <path fill="#000" d="M-1.17 34.009h4.028v92.373H-1.17z" filter="url(#m)" mask="url(#l)" opacity=".4"/>
                    <path fill="#000" d="M264.005 34.009h4.028v92.373h-4.028z" filter="url(#n)" mask="url(#l)" opacity=".4"/>
                </g>
            </g>
            <path fill="#FFF" d="M-.062 85.024c.493.901.74 1.857.74 2.869l.04 31.258c0 1.37-.157 4.188-1.522 4.188h.078c1.6-.039 1.677-2.818 1.677-4.188l-.04-31.228C.87 86.541.62 85.966.176 85.055c-.045-.093-.124-.104-.237-.03zm-.172-47.928c.827.79 1.053 3.092 1.053 4.306v29.72c0 1.37-.156 4.189-1.521 4.189h.078c1.599-.04 1.677-2.818 1.677-4.188V41.402c-.036-1.17-.293-3.537-1.08-4.306-.06-.059-.179-.105-.207 0zM259.3 106.195V53.9c0-1.214.234-3.601.975-4.267-.975.548-1.17 3.053-1.17 4.267v52.295c0 1.37.039 4.149 1.599 4.188h.078c-1.326 0-1.482-2.78-1.482-4.188zm1.404-56.758c-.156 0-.273.079-.39.196a.657.657 0 0 1 .39-.117v-.079zM.39 19.478c.054-.006.024.24.072.202.357-.285.544-.895.56-1.829V2.201C1.006 1.478.845.91.541.493.449.369.396.66.297.53c.305.407.468.964.491 1.67v15.65c-.01.755-.143 1.297-.398 1.627z" mask="url(#d)" opacity=".5"/>
            <g fill="#E4E4E4" fill-rule="nonzero" mask="url(#d)" opacity=".6" style="mix-blend-mode:soft-light">
                <path d="M-182.13-122.909h624v626.286h-624z"/>
            </g>
        </g>
        <g transform="translate(28.47 6.199)">
            <mask id="p" fill="#fff">
                <use xlink:href="#o"/>
            </mask>
            <use fill="#FFF" xlink:href="#o"/>
            <g fill="#FFF" fill-rule="nonzero" mask="url(#p)" opacity=".4" style="mix-blend-mode:hard-light">
                <path d="M-183.3-52.06h624v626.286h-624z"/>
            </g>
            <path fill="#FFF" d="M234.039 513.633c8.502-5.911 13.962-15.501 13.962-27.635V41.178c0-18.397-7.527-29.396-18.681-34.563 14.313 5.324 24.492 19.18 24.492 35.503v437.108c0 14.444-7.995 27.635-19.773 34.407zM9.009 42.705v443.293c0 9.55 3.354 17.457 8.892 23.29-8.385-7.32-14.079-18.28-14.079-30.062V42.118c0-14.835 8.853-27.674 21.138-33.859-9.633 5.872-15.951 16.91-15.951 34.446z" filter="url(#q)" mask="url(#p)"/>
            <path fill="#FFF" d="M234.039 513.633c8.502-5.911 13.962-15.501 13.962-27.635V41.178c0-18.397-7.527-29.396-18.681-34.563 14.313 5.324 24.492 19.18 24.492 35.503v437.108c0 14.444-7.995 27.635-19.773 34.407zM9.009 42.705v443.293c0 9.55 3.354 17.457 8.892 23.29-8.385-7.32-14.079-18.28-14.079-30.062V42.118c0-14.835 8.853-27.674 21.138-33.859-9.633 5.872-15.951 16.91-15.951 34.446z" filter="url(#r)" mask="url(#p)"/>
            <path fill="#FFF" d="M215.982 10.764H41.652c-20.163 0-32.37 7.163-36.387 22.35C7.059 13.7 19.578 1.685 42.51 1.685h172.614c22.932 0 35.451 12.016 37.245 31.43-4.017-15.147-16.224-22.35-36.387-22.35z" filter="url(#s)" mask="url(#p)"/>
            <path fill-rule="nonzero" d="M34.344 521.657H223.25c18.228 0 33.526-12.017 37.902-28.261v4.462c0 20.863-17.345 37.812-38.785 37.812H35.228c-21.401 0-38.786-16.91-38.786-37.812v-4.462c4.416 16.244 19.714 28.26 37.902 28.26z" filter="url(#t)" mask="url(#p)" opacity=".2"/>
            <path d="M34.346 521.54h188.942c13.177 0 24.841-6.263 31.928-15.932-6.57 11.626-19.15 19.454-33.6 19.454H36.018c-14.45 0-27.07-7.867-33.6-19.454 7.087 9.669 18.751 15.931 31.928 15.931z" filter="url(#u)" mask="url(#p)" opacity=".1"/>
            <path d="M37.596 522.44h182.442c18.837 0 34.437-13.779 37.323-31.784v6.42c0 20.862-16.848 37.811-37.674 37.811H37.908c-20.787 0-37.674-16.91-37.674-37.812v-6.42c2.886 18.006 18.525 31.785 37.362 31.785z" filter="url(#v)" mask="url(#p)" opacity=".2"/>
            <path fill="#FFF" d="M227.643 521.383c17.349-3.818 29.094-17.812 29.094-42.52V44.131c0-33.174-22.275-43.623-42.705-43.623H43.069C20.888.509.741 12.279.741 44.572v432.529c0 27.106 13.858 40.953 28.158 43.93-32.435 8.668-33.189-20.276-33.189-38.948V35.855c0-20.863 18.954-37.812 39.741-37.812h187.59c20.787 0 39.741 16.91 39.741 37.812v446.307c-.039 19.297-8.04 43.33-35.139 39.22z" filter="url(#w)" mask="url(#p)" opacity=".9"/>
        </g>
        <path fill="#000" fill-rule="nonzero" d="M242.541 12.697H71.994c-24.531 0-37.011 13.974-37.011 36.128v436.091c0 27.557 17.277 37.147 36.621 37.147H242.97c19.344 0 36.621-9.59 36.621-37.147V48.826c0-22.155-12.48-36.13-37.05-36.13zm36.621 472.219c0 12.682-3.666 22.311-10.92 28.613-6.123 5.324-14.898 8.142-25.272 8.142H71.565c-10.413 0-19.149-2.818-25.272-8.142-7.254-6.262-10.92-15.892-10.92-28.613V48.826c0-11.117 3.081-19.885 9.204-26.07 6.318-6.38 15.561-9.629 27.417-9.629h170.547c11.895 0 21.099 3.249 27.417 9.63 6.084 6.184 9.204 14.952 9.204 26.068v436.091zm-7.41-463.921c-6.786-6.89-16.614-10.373-29.211-10.373H71.994c-12.558 0-22.386 3.484-29.211 10.373-6.474 6.576-9.906 16.166-9.906 27.83v436.091c0 13.465 3.978 23.72 11.778 30.492 6.591 5.715 15.912 8.768 26.91 8.768H242.97c10.998 0 20.319-3.014 26.91-8.768 7.8-6.771 11.778-17.027 11.778-30.492V48.826c0-11.665-3.432-21.294-9.906-27.831zm9.477 463.921c0 13.309-3.9 23.486-11.622 30.18-6.513 5.675-15.717 8.65-26.637 8.65H71.565c-10.92 0-20.124-2.975-26.637-8.65-7.722-6.694-11.622-16.832-11.622-30.18V48.826c0-11.548 3.393-21.06 9.789-27.518 6.708-6.81 16.458-10.255 28.899-10.255h170.547c12.441 0 22.191 3.444 28.899 10.255 6.396 6.498 9.789 16.01 9.789 27.517v436.091z" opacity=".1"/>
        <g transform="translate(140.79 23.813)">
            <g transform="translate(.39 .783)">
                <mask id="y" fill="#fff">
                    <use xlink:href="#x"/>
                </mask>
                <use fill="#DDD" fill-rule="nonzero" xlink:href="#x"/>
                <path fill="#FFF" fill-rule="nonzero" d="M34.207-.248l-4.538 5.157.2.228L34.409-.02l-.201-.228zm-1.084 0l-4.538 5.157.2.228L33.323-.02l-.2-.228zm-1.085 0L27.5 4.909l.201.228L32.24-.02l-.2-.228zm-1.124 0l-4.538 5.157.2.228L31.116-.02l-.201-.228zm-1.084 0L25.29 4.909l.201.228L30.03-.02l-.2-.228zm-1.085 0l-4.538 5.157.201.228L28.946-.02l-.2-.228zm-1.084 0l-4.538 5.157.2.228L27.863-.02l-.201-.228zm-1.125 0l-4.538 5.157.201.228L26.737-.02l-.2-.228zm-1.084 0l-4.538 5.157.2.228L25.654-.02l-.2-.228zm-1.084 0L19.83 4.909l.2.228L24.57-.02l-.201-.228zm-1.085 0l-4.538 5.157.201.228L23.484-.02l-.2-.228zm-1.084 0l-4.538 5.157.2.228L22.4-.02l-.2-.228zm-1.124 0l-4.538 5.157.2.228L21.276-.02l-.201-.228zm-1.085 0l-4.538 5.157.201.228L20.191-.02l-.2-.228zm-1.084 0l-4.538 5.157.2.228L19.108-.02l-.2-.228zm-1.084 0l-4.538 5.157.2.228L18.023-.02l-.201-.228zm-1.125 0L12.16 4.909l.201.228L16.898-.02l-.2-.228zm-1.084 0l-4.538 5.157.2.228L15.815-.02l-.201-.228zm-1.084 0L9.99 4.909l.2.228L14.73-.02l-.2-.228zm-1.085 0L8.906 4.909l.201.228L13.645-.02l-.2-.228zm-1.084 0L7.822 4.909l.2.228L12.562-.02l-.201-.228zm-1.124 0L6.697 4.909l.201.228L11.436-.02l-.2-.228zm-1.085 0L5.613 4.909l.2.228L10.353-.02l-.2-.228zm-1.084 0L4.529 4.909l.2.228L9.269-.02l-.201-.228zm-1.084 0L3.445 4.909l.2.228L8.183-.02l-.2-.228zm-1.125 0L2.32 4.909l.2.228L7.06-.02l-.2-.228zm-1.084 0L1.236 4.909l.2.228L5.976-.02l-.201-.228zm-1.085 0L.151 4.909l.201.228L4.89-.02l-.2-.228zm-1.084 0L-.933 4.909l.2.228L3.807-.02l-.2-.228zm-1.084 0l-4.538 5.157.2.228L2.723-.02 2.52-.248zm-1.125 0l-4.538 5.157.201.228L1.597-.02l-.2-.228z" mask="url(#y)" opacity=".504"/>
                <path fill="#FFF" fill-rule="nonzero" d="M29.87-.248l-.201.228 4.538 5.157.2-.228L29.87-.248zm-1.285.182l4.538 5.158.2-.229-4.578-5.111-.16.182zm-1.125 0l4.538 5.158.201-.229-4.538-5.111-.2.182zm-1.084 0l4.538 5.158.2-.229-4.537-5.111-.201.182zm-1.085 0l4.539 5.158.2-.229-4.538-5.111-.2.182zm-1.084 0l4.538 5.158.201-.229-4.578-5.111-.16.182zm-1.124 0l4.538 5.158.2-.229-4.538-5.111-.2.182zm-1.085 0l4.538 5.158.201-.229L22.2-.248l-.2.182zm-1.084 0l4.538 5.158.2-.229-4.537-5.111-.2.182zm-1.084 0l4.538 5.158.2-.229-4.537-5.111-.201.182zm-1.085 0l4.538 5.158.201-.229-4.578-5.111-.16.182zm-1.124 0l4.538 5.158.2-.229-4.537-5.111-.201.182zm-1.084 0l4.538 5.158.2-.229-4.538-5.111-.2.182zm-1.085 0l4.538 5.158.201-.229-4.538-5.111-.2.182zm-1.084 0l4.538 5.158.2-.229L14.53-.248l-.161.182zm-1.084 0l4.538 5.158.2-.229-4.578-5.111-.16.182zm-1.125 0l4.538 5.158.201-.229L12.36-.248l-.2.182zm-1.084 0l4.538 5.158.2-.229-4.537-5.111-.201.182zm-1.084 0l4.538 5.158.2-.229-4.538-5.111-.2.182zm-1.085 0l4.538 5.158.201-.229L9.067-.248l-.16.182zm-1.124 0l4.538 5.158.2-.229L7.984-.248l-.201.182zm-1.085 0l4.539 5.158.2-.229L6.898-.248l-.2.182zm-1.084 0l4.538 5.158.201-.229L5.814-.248l-.2.182zm-1.084 0l4.538 5.158.2-.229L4.73-.248l-.201.182zm-1.084 0l4.538 5.158.2-.229L3.605-.248l-.16.182zm-1.125 0l4.538 5.158.2-.229L2.522-.248l-.201.182zm-1.084 0l4.538 5.158.2-.229L1.438-.248l-.201.182zm-1.085 0L4.69 5.092l.201-.229L.352-.248l-.2.182zm-1.084 0l4.538 5.158.201-.229L-.772-.248l-.16.182zm-1.124 0L2.48 5.092l.2-.229-4.538-5.111-.2.182zm-1.085 0l4.538 5.158.201-.229L-2.94-.248l-.2.182z" mask="url(#y)" opacity=".6"/>
            </g>
            <g transform="translate(0 .391)">
                <mask id="B" fill="#fff">
                    <use xlink:href="#z"/>
                </mask>
                <path fill="#FFF" d="M-.312 3.014h33.306V7.75H-.312z" filter="url(#A)" mask="url(#B)" opacity=".799"/>
                <path fill="#000" fill-rule="nonzero" d="M30.108.587H2.847C1.482.587.351 1.644.273 2.975v-.196A2.618 2.618 0 0 1 2.886.157h27.261a2.618 2.618 0 0 1 2.613 2.622v.196C32.604 1.644 31.473.587 30.108.587z" filter="url(#C)" mask="url(#B)"/>
                <g fill="#E4E4E4" fill-rule="nonzero" mask="url(#B)" opacity=".15" style="mix-blend-mode:soft-light">
                    <path d="M-335.79-69.283h624v626.286h-624z"/>
                </g>
            </g>
            <path fill="#FFF" d="M2.847 5.793h27.261c1.404 0 2.535-1.096 2.613-2.505v.117a2.618 2.618 0 0 1-2.613 2.623H2.847A2.618 2.618 0 0 1 .234 3.405v-.117c.078 1.41 1.209 2.505 2.613 2.505z"/>
            <path fill="#FFF" d="M30.108.587H2.847C1.443.587.312 1.683.234 3.092v-.117A2.618 2.618 0 0 1 2.847.352h27.261a2.618 2.618 0 0 1 2.613 2.623v.117C32.643 1.683 31.512.587 30.108.587z" opacity=".9"/>
            <mask id="F" fill="#fff">
                <use xlink:href="#D"/>
            </mask>
            <use fill="#000" fill-rule="nonzero" filter="url(#E)" opacity=".5" xlink:href="#D"/>
            <g fill="#E4E4E4" fill-rule="nonzero" mask="url(#F)" opacity=".03" style="mix-blend-mode:soft-light">
                <path d="M-335.79-69.283h624v626.286h-624z"/>
            </g>
        </g>
        <g transform="translate(180.96 23.03)">
            <mask id="I" fill="#fff">
                <use xlink:href="#G"/>
            </mask>
            <use fill="#E2E2E2" fill-rule="nonzero" xlink:href="#G"/>
            <path fill="#FFF" fill-rule="nonzero" d="M8.034 8.298c0 2.27-1.833 4.15-4.134 4.15a4.144 4.144 0 0 1-4.134-4.15c0-2.27 1.833-4.149 4.134-4.149S8.034 6.028 8.034 8.3z" filter="url(#H)" mask="url(#I)"/>
            <path fill="#000" fill-rule="nonzero" d="M8.034.783c0 2.27-1.833 4.149-4.134 4.149A4.144 4.144 0 0 1-.234.782c0-2.27 1.833-4.148 4.134-4.148S8.034-1.487 8.034.783z" filter="url(#J)" mask="url(#I)" opacity=".1"/>
            <g fill="#E4E4E4" fill-rule="nonzero" mask="url(#I)" opacity=".297" style="mix-blend-mode:soft-light">
                <path d="M-335.79-68.891h624v626.286h-624z"/>
            </g>
        </g>
        <g transform="translate(182.13 24.596)">
            <mask id="N" fill="#fff">
                <use xlink:href="#K"/>
            </mask>
            <g fill-rule="nonzero">
                <use fill="#E0E0E0" xlink:href="#K"/>
                <use fill="#000" filter="url(#L)" xlink:href="#K"/>
            </g>
            <path fill="#FFF" d="M.936 3.21c-.273.43.78 1.565 1.794 1.565.975 0 2.223-1.056 2.028-1.526-.351.196-1.131.587-1.989.587-.858 0-1.56-.352-1.833-.626z" filter="url(#M)" mask="url(#N)"/>
            <path fill="#FFF" d="M2.379 1.37c.546 0 .975.43.975.979a.967.967 0 0 1-.975.978.967.967 0 0 1-.975-.978c0-.548.429-.979.975-.979z" filter="url(#O)" mask="url(#N)"/>
            <g fill="#E4E4E4" fill-rule="nonzero" mask="url(#N)" opacity=".297" style="mix-blend-mode:soft-light">
                <path d="M-335.79-68.891h624v626.286h-624z"/>
            </g>
        </g>
        <path fill="#00E1CD" fill-rule="nonzero" d="M244.218 21.895h-20.436c-1.911 0-3.471 1.566-3.471 3.484v1.487c0 7.28-5.889 13.191-13.143 13.191h-99.762c-7.254 0-13.143-5.91-13.143-13.19v-1.488c0-1.918-1.56-3.484-3.471-3.484H70.356c-16.029 0-25.779 8.964-25.779 25.874v440.278c0 16.91 12.051 24.856 26.637 24.856h172.224c14.547 0 26.637-7.946 26.637-24.856V47.77c-.078-16.91-9.828-25.874-25.857-25.874z"/>
        <g fill-rule="nonzero">
            <path fill="url(#P)" d="M70.177 70.502S62.822 79.2 49.272 79.2c-16.327 0-29.563-13.296-29.563-29.7s13.236-29.7 29.563-29.7c13.55 0 20.905 8.7 20.905 8.7a9.824 9.824 0 0 0 9.52 2.562 9.877 9.877 0 0 0 6.967-7.001 9.931 9.931 0 0 0-2.55-9.563S71.29 0 49.271 0C22.06 0 0 22.162 0 49.5S22.06 99 49.272 99c22.02 0 34.841-14.498 34.841-14.498 3.795-3.875 3.77-10.1-.056-13.943a9.822 9.822 0 0 0-13.88-.057z" transform="translate(112.3 224.199)"/>
            <path fill="#FFF" d="M196.426 294.48a9.735 9.735 0 0 0-6.941-2.924 9.735 9.735 0 0 0-6.94 2.923s-7.325 8.766-20.82 8.766c-13.235 0-20.82-8.766-20.82-8.766a9.703 9.703 0 0 0-13.88 0c-3.834 3.895-3.834 10.213-.001 14.11 0 0 12.77 14.61 34.7 14.61 21.931 0 34.702-14.61 34.702-14.61 3.832-3.897 3.832-10.214 0-14.11z"/>
        </g>
    </g>
</svg>
