<svg xmlns="http://www.w3.org/2000/svg" width="66" height="73" viewBox="0 0 66 73">
    <g fill="#00D2BE" fill-rule="nonzero">
        <path d="M64.68 35.28a1.164 1.164 0 0 0-1.525.63c-1.874 4.539-5.366 7.368-9.103 7.368-3.736 0-7.24-2.829-9.102-7.369a1.85 1.85 0 0 0-1.688-1.164 1.827 1.827 0 0 0-1.676 1.164c-1.816 4.54-5.308 7.369-9.114 7.369-3.807 0-7.229-2.829-9.103-7.369a1.77 1.77 0 0 0-3.364 0c-1.874 4.54-5.366 7.369-9.102 7.369-3.353 0-6.53-2.328-8.509-6.088a1.169 1.169 0 1 0-2.072 1.082c2.386 4.586 6.344 7.334 10.58 7.334 4.238 0 8.44-2.945 10.791-7.764 2.328 4.819 6.39 7.764 10.779 7.764 4.388 0 8.462-2.945 10.79-7.764a13.758 13.758 0 0 0 7.194 7.077l2.223 8.148-31.8 8.625-3.365-12.338a1.164 1.164 0 0 0-1.431-.815 1.164 1.164 0 0 0-.757 1.513l4.97 18.205a6.1 6.1 0 0 0 2.852 3.69 6.03 6.03 0 0 0 4.621.582l24.549-6.693a6.03 6.03 0 0 0 3.678-2.852 6.1 6.1 0 0 0 .594-4.656l-3.492-12.804c.337.017.675.017 1.012 0 4.656 0 9.01-3.376 11.256-8.811a1.164 1.164 0 0 0-.686-1.432zM54.285 58.946a3.806 3.806 0 0 1-.36 2.852 3.725 3.725 0 0 1-2.329 1.757l-24.502 6.693a3.748 3.748 0 0 1-4.656-2.63l-.943-3.597 31.8-8.672.99 3.597z"/>
        <path d="M12.032 38.133c.14.523.623.88 1.164.861.104.011.21.011.314 0a1.164 1.164 0 0 0 .815-1.432L9.401 19.648l31.8-8.671 5.96 21.836a1.164 1.164 0 0 0 2.247-.617L41.842 4.493A6.076 6.076 0 0 0 34.369.221L9.82 6.914a5.995 5.995 0 0 0-3.678 2.852 6.1 6.1 0 0 0-.594 4.656l6.484 23.71zM8.167 10.918a3.667 3.667 0 0 1 2.328-1.757l24.491-6.693a3.748 3.748 0 0 1 4.656 2.63l.943 3.632-31.8 8.73-.99-3.632a3.76 3.76 0 0 1 .372-2.91z"/>
        <rect width="8.206" height="1.641" x="19.988" y="8.505" rx=".745" transform="rotate(-15.25 24.091 9.325)"/>
        <path d="M39.211 64.753a1.641 1.641 0 0 0-.861-3.166 1.63 1.63 0 0 0-1.164 2.014 1.641 1.641 0 0 0 2.025 1.152z"/>
    </g>
</svg>
