<svg xmlns="http://www.w3.org/2000/svg" width="40" height="71" viewBox="0 0 40 71">
    <g fill="#00D2BE" fill-rule="nonzero">
        <path d="M33.436 0H6.43A6.44 6.44 0 0 0 0 6.429v58.003a6.44 6.44 0 0 0 6.429 6.44h27.007a6.44 6.44 0 0 0 6.441-6.428V6.441A6.44 6.44 0 0 0 33.437 0zM6.43 2.417h27.007a4.012 4.012 0 0 1 4.024 4.012v4.024H2.417V6.429a4.012 4.012 0 0 1 4.012-4.012zm21.848 45.46c.21.384.612.625 1.05.628h8.133v9.498H2.417V33.158l5.148-3.866 7.467 10.283a1.208 1.208 0 0 0 1.789.193l4.253-3.866 2.623 3.625 4.58 8.35zm-2.079-8.834L37.46 26.585v19.503h-7.407l-3.855-7.045zM37.17 23.238L24.82 36.953l-2.573-3.565a1.208 1.208 0 0 0-1.8-.181l-4.242 3.867-7.396-10.187a1.208 1.208 0 0 0-.797-.496H7.83c-.261 0-.515.085-.725.242l-4.688 3.504V12.87H37.46v10.09c-.111.076-.21.17-.29.279zm-3.734 45.23H6.43a4.024 4.024 0 0 1-4.012-4.024V60.42H37.46v4.012a4.024 4.024 0 0 1-4.024 4.036z"/>
        <rect width="8.713" height="1.74" x="16.011" y="5.559" rx=".798"/>
        <path d="M20.374 62.704a1.74 1.74 0 1 0 1.74 1.74 1.752 1.752 0 0 0-1.74-1.74z"/>
    </g>
</svg>
