<svg xmlns="http://www.w3.org/2000/svg" width="65" height="71" viewBox="0 0 65 71">
    <g fill="none" fill-rule="evenodd" stroke="#00D2BE" stroke-width="2" transform="translate(1 1)">
        <path d="M21.92 39.46a8.56 8.56 0 0 1-4 3.22L2.61 46.33a3.28 3.28 0 1 0 1.52 6.38l15.31-3.65a14.93 14.93 0 0 0 6.7-4.79"/>
        <path stroke-linecap="round" stroke-linejoin="round" d="M38.37 21.24l6.36 7.32a2.84 2.84 0 0 0 3.61 1.11l12.32-4.35a2.72 2.72 0 1 0-1.81-5.13L48.6 23.7v-.06l-7-10c-3.52-4.5-6.89-.56-6.89-.56L24.93 28c-3.76 5.23.07 9 .07 9l10 12.08 1.36 15.74a3.28 3.28 0 1 0 6.56 0l-1.23-17.21a9.39 9.39 0 0 0-2-4.7l-7-9.72 6.92-8.6"/>
        <circle cx="49.55" cy="6.08" r="6.08"/>
        <path stroke-linecap="round" stroke-linejoin="round" d="M37.81 7.16s-25.06-6.09-31.6 9.43A9.35 9.35 0 0 0 11.33 29s4.67 2.64 12.59-.24M50.61 16.12a72.1 72.1 0 0 1 6.08 4.19"/>
    </g>
</svg>
