<svg xmlns="http://www.w3.org/2000/svg" width="82" height="90" viewBox="0 0 82 90">
    <g fill="none" fill-rule="evenodd" transform="translate(-19 -15)">
        <rect width="80" height="80" x="20" y="24" stroke="#00D2BE" stroke-width="2" rx="8.64"/>
        <rect width="6" height="16" x="35" y="16" fill="#FFF" stroke="#00D2BE" stroke-width="2" rx="3"/>
        <rect width="6" height="16" x="79" y="16" fill="#FFF" stroke="#00D2BE" stroke-width="2" rx="3"/>
        <path stroke="#00D2BE" stroke-linecap="square" stroke-width="2.16" d="M21.08 42h77.76"/>
        <path fill="#00D2BE" fill-rule="nonzero" d="M50.683 85.675c0 .403-.209.605-.627.605h-.985c-.418 0-.627-.202-.627-.605V59.15H42.31c-.418 0-.627-.201-.627-.604v-.692c0-.403.21-.604.627-.604h7.746c.418 0 .627.201.627.604v27.821zm16.664-29.03c2.794 0 4.961.633 6.502 1.9 1.54 1.268 2.311 3.068 2.311 5.4v.951c0 1.555-.389 2.894-1.166 4.018-.778 1.123-1.901 1.944-3.37 2.462 1.728.518 3.038 1.368 3.931 2.549.893 1.18 1.34 2.635 1.34 4.363v.994c0 2.419-.836 4.29-2.506 5.616-1.67 1.324-4.032 1.987-7.085 1.987-3.082 0-5.443-.655-7.085-1.966-1.641-1.31-2.462-3.19-2.462-5.637v-.994c0-1.7.446-3.14 1.339-4.32.893-1.18 2.203-2.03 3.931-2.549-2.995-1.094-4.493-3.269-4.493-6.523v-.95c0-2.276.778-4.061 2.333-5.357 1.555-1.296 3.715-1.944 6.48-1.944zm-7.43 22.334c0 4.003 2.462 6.005 7.387 6.005 4.954 0 7.43-2.002 7.43-6.005v-.561c0-4.032-2.476-6.048-7.43-6.048-4.925 0-7.387 2.016-7.387 6.048v.561zm7.43-20.433c-4.435 0-6.653 1.9-6.653 5.702v.518c0 3.802 2.218 5.703 6.653 5.703S74 68.568 74 64.766v-.518c0-3.802-2.218-5.702-6.653-5.702z"/>
    </g>
</svg>
