<svg xmlns="http://www.w3.org/2000/svg" width="20" height="13" viewBox="0 0 20 13">
    <g fill="#324B68" fill-rule="nonzero">
        <path d="M19 13H1c-.551 0-1-.448-1-1V8.5A.5.5 0 0 1 .5 8C1.327 8 2 7.327 2 6.5S1.327 5 .5 5a.5.5 0 0 1-.5-.5V1c0-.551.449-1 1-1h18c.552 0 1 .449 1 1v3.5a.5.5 0 0 1-.5.5c-.827 0-1.5.673-1.5 1.5S18.673 8 19.5 8a.5.5 0 0 1 .5.5V12a1 1 0 0 1-1 1zM1 8.95V12h18V8.95a2.505 2.505 0 0 1-2-2.45c0-1.208.86-2.217 2-2.45V1H1v3.05c1.14.233 2 1.242 2 2.45 0 1.207-.86 2.218-2 2.45z"/>
        <path d="M8.5 10a.5.5 0 0 1-.416-.777l4-6a.5.5 0 0 1 .832.554l-4 6A.5.5 0 0 1 8.5 10zM8.5 6C7.673 6 7 5.327 7 4.5S7.673 3 8.5 3s1.5.673 1.5 1.5S9.327 6 8.5 6zm0-2a.5.5 0 1 0 0 1 .5.5 0 0 0 0-1zM12.5 10c-.827 0-1.5-.673-1.5-1.5S11.673 7 12.5 7s1.5.673 1.5 1.5-.673 1.5-1.5 1.5zm0-2a.501.501 0 0 0 0 1 .501.501 0 0 0 0-1z"/>
    </g>
</svg>
